<?xml version="1.0" encoding="UTF-8"?>
<!DOCTYPE svg PUBLIC "-//W3C//DTD SVG 1.1//EN" "http://www.w3.org/Graphics/SVG/1.1/DTD/svg11.dtd">
<!-- Creator: CorelDRAW -->
<svg xmlns="http://www.w3.org/2000/svg" xml:space="preserve" width="2048px" height="2048px" style="shape-rendering:geometricPrecision; text-rendering:geometricPrecision; image-rendering:optimizeQuality; fill-rule:evenodd; clip-rule:evenodd"
viewBox="0 0 2048 2048"
 xmlns:xlink="http://www.w3.org/1999/xlink">
 <defs>
  <style type="text/css">
   <![CDATA[
    .fil1 {fill:none}
    .fil0 {fill:#212121;fill-rule:nonzero}
   ]]>
  </style>
 </defs>
 <g id="Layer_x0020_1">
  <metadata id="CorelCorpID_0Corel-Layer"/>
  <g id="_557071928">
   <path id="_557072216" class="fil0" d="M567.798 528.589l912.407 0c6.763,0 13.6571,0.532678 20.6103,1.55906 31.0772,4.58622 60.4382,19.4244 82.069,40.7634 22.7799,22.4729 37.3429,52.1351 37.3429,85.0855 0,5.23229 -0.405118,10.6925 -1.24252,16.3725l-145.382 985.103c-5.46969,37.0831 -21.5103,71.3209 -46.063,95.8737 -23.8654,23.8654 -55.3335,38.6563 -92.7154,38.6563l-621.645 0c-37.3819,0 -68.8512,-14.791 -92.7166,-38.6563 -24.5516,-24.5528 -40.5922,-58.7894 -46.0618,-95.8737l-145.382 -985.103c-0.837402,-5.67993 -1.24252,-11.1413 -1.24252,-16.3725 0,-32.9528 14.563,-62.615 37.3429,-85.0879 21.6307,-21.339 50.9918,-36.1772 82.069,-40.7611 6.95315,-1.02638 13.8473,-1.55906 20.6103,-1.55906zm912.407 64.0016l-912.407 0c-3.96024,0 -7.75749,0.276378 -11.3599,0.807875 -17.7248,2.61496 -34.3855,10.9913 -46.5697,23.0114 -11.035,10.8862 -18.091,24.7394 -18.091,39.587 0,2.49449 0.16063,4.87678 0.491339,7.12205l145.382 985.103c3.4937,23.6823 13.2709,45.0827 28.0618,59.8737 12.2882,12.2882 28.4079,19.9051 47.4662,19.9051l621.645 0c19.0571,0 35.1768,-7.61693 47.465,-19.9051 14.7921,-14.7921 24.5705,-36.1937 28.063,-59.8737l145.382 -985.103c0.330709,-2.24528 0.491339,-4.62638 0.491339,-7.12205 0,-14.8453 -7.05591,-28.6984 -18.091,-39.5847 -12.1854,-12.0213 -28.8449,-20.3988 -46.5697,-23.0138 -3.60236,-0.531496 -7.39961,-0.807875 -11.3599,-0.807875z"/>
   <path id="_557072168" class="fil0" d="M351.603 419.555c-17.6728,0 -32.0008,14.328 -32.0008,32.0008 0,17.6728 14.328,32.0008 32.0008,32.0008l1344.79 0c17.6728,0 32.0008,-14.328 32.0008,-32.0008 0,-17.6728 -14.328,-32.0008 -32.0008,-32.0008l-1344.79 0z"/>
   <path id="_557071904" class="fil0" d="M896.79 255.999l254.421 0c53.8099,0 102.709,21.9921 138.137,57.4205 35.4284,35.4284 57.4205,84.326 57.4205,138.136 0,17.6728 -14.328,32.0008 -32.0008,32.0008l-581.535 0c-17.6728,0 -32.0008,-14.328 -32.0008,-32.0008 0,-53.8099 21.9921,-102.708 57.4205,-138.136 35.4284,-35.4284 84.3272,-57.4205 138.137,-57.4205zm254.421 64.0016l-254.421 0c-36.1441,0 -69.0284,14.811 -92.8867,38.6693 -16.5803,16.5803 -28.7894,37.5213 -34.6961,60.8847l509.587 0c-5.9067,-23.3634 -18.1158,-44.3044 -34.6961,-60.8847 -23.8583,-23.8583 -56.7426,-38.6693 -92.8867,-38.6693z"/>
  </g>
 </g>
 <rect class="fil1" width="2048" height="2048"/>
</svg>
